<svg width="160" height="33" viewBox="0 0 160 33" fill="none" xmlns="http://www.w3.org/2000/svg">
<path d="M11.9666 8.64578V11.1315H7.87509V24H4.79544V11.1315H0.703918V8.64578H11.9666ZM13.4217 17.8627C13.4217 16.6309 13.6637 15.5383 14.1476 14.5851C14.6462 13.6319 15.3135 12.8986 16.1494 12.3853C17 11.8721 17.9459 11.6154 18.9871 11.6154C19.8963 11.6154 20.6882 11.7987 21.3628 12.1654C22.052 12.532 22.602 12.9939 23.0126 13.5512V11.8134H26.1142V24H23.0126V22.2182C22.6166 22.7901 22.0667 23.2668 21.3628 23.648C20.6735 24.0147 19.8743 24.198 18.9651 24.198C17.9385 24.198 17 23.934 16.1494 23.4061C15.3135 22.8781 14.6462 22.1375 14.1476 21.1843C13.6637 20.2164 13.4217 19.1092 13.4217 17.8627ZM23.0126 17.9067C23.0126 17.1588 22.8659 16.5209 22.5726 15.9929C22.2793 15.4503 21.8834 15.0397 21.3848 14.7611C20.8862 14.4678 20.3509 14.3211 19.779 14.3211C19.207 14.3211 18.6791 14.4604 18.1952 14.7391C17.7112 15.0177 17.3153 15.4283 17.0073 15.9709C16.714 16.4989 16.5673 17.1295 16.5673 17.8627C16.5673 18.596 16.714 19.2412 17.0073 19.7985C17.3153 20.3411 17.7112 20.759 18.1952 21.0523C18.6938 21.3456 19.2217 21.4923 19.779 21.4923C20.3509 21.4923 20.8862 21.353 21.3848 21.0743C21.8834 20.781 22.2793 20.3704 22.5726 19.8425C22.8659 19.2999 23.0126 18.6546 23.0126 17.9067ZM30.6839 10.3616C30.1413 10.3616 29.6866 10.1929 29.32 9.85564C28.9681 9.50368 28.7921 9.07106 28.7921 8.55779C28.7921 8.04452 28.9681 7.61923 29.32 7.28194C29.6866 6.92998 30.1413 6.754 30.6839 6.754C31.2265 6.754 31.6737 6.92998 32.0257 7.28194C32.3923 7.61923 32.5756 8.04452 32.5756 8.55779C32.5756 9.07106 32.3923 9.50368 32.0257 9.85564C31.6737 10.1929 31.2265 10.3616 30.6839 10.3616ZM32.2017 11.8134V24H29.122V11.8134H32.2017ZM38.324 7.72189V24H35.2444V7.72189H38.324ZM46.7781 24.198C45.6049 24.198 44.549 23.9413 43.6105 23.4281C42.6719 22.9001 41.9313 22.1595 41.3887 21.2063C40.8608 20.2531 40.5968 19.1532 40.5968 17.9067C40.5968 16.6602 40.8681 15.5603 41.4107 14.6071C41.968 13.6539 42.7232 12.9206 43.6764 12.4073C44.6297 11.8794 45.6929 11.6154 46.8661 11.6154C48.0393 11.6154 49.1025 11.8794 50.0557 12.4073C51.0089 12.9206 51.7568 13.6539 52.2994 14.6071C52.8567 15.5603 53.1354 16.6602 53.1354 17.9067C53.1354 19.1532 52.8494 20.2531 52.2775 21.2063C51.7202 22.1595 50.9576 22.9001 49.9897 23.4281C49.0365 23.9413 47.966 24.198 46.7781 24.198ZM46.7781 21.5143C47.3354 21.5143 47.856 21.3823 48.3399 21.1183C48.8385 20.8397 49.2345 20.4291 49.5278 19.8865C49.8211 19.3439 49.9677 18.6839 49.9677 17.9067C49.9677 16.7482 49.6598 15.8609 49.0438 15.245C48.4426 14.6144 47.702 14.2991 46.8221 14.2991C45.9422 14.2991 45.2016 14.6144 44.6003 15.245C44.0137 15.8609 43.7204 16.7482 43.7204 17.9067C43.7204 19.0652 44.0064 19.9598 44.5783 20.5904C45.1649 21.2063 45.8982 21.5143 46.7781 21.5143ZM58.474 13.7052C58.87 13.0599 59.3833 12.554 60.0139 12.1874C60.6591 11.8207 61.3924 11.6374 62.2136 11.6374V14.8711H61.3997C60.4318 14.8711 59.6986 15.0984 59.1999 15.553C58.716 16.0076 58.474 16.7995 58.474 17.9287V24H55.3944V11.8134H58.474V13.7052Z" fill="#070707"/>
<path d="M73.9992 13.7513C75.5178 13.7513 76.7489 12.5202 76.7489 11.0016C76.7489 9.48303 75.5178 8.25195 73.9992 8.25195C72.4806 8.25195 71.2495 9.48303 71.2495 11.0016C71.2495 12.5202 72.4806 13.7513 73.9992 13.7513Z" fill="#070707" stroke="#070707" stroke-width="1.83312" stroke-linecap="round" stroke-linejoin="round"/>
<path d="M75.9419 12.9434L79.4981 16.4996" stroke="#070707" stroke-width="1.83312" stroke-linecap="round" stroke-linejoin="round"/>
<path d="M86.8306 9.16602L75.9419 20.0548" stroke="#070707" stroke-width="1.83312" stroke-linecap="round" stroke-linejoin="round"/>
<path d="M73.9992 24.7474C75.5178 24.7474 76.7489 23.5163 76.7489 21.9977C76.7489 20.4791 75.5178 19.248 73.9992 19.248C72.4806 19.248 71.2495 20.4791 71.2495 21.9977C71.2495 23.5163 72.4806 24.7474 73.9992 24.7474Z" fill="#070707" stroke="#070707" stroke-width="1.83312" stroke-linecap="round" stroke-linejoin="round"/>
<path d="M82.0645 19.0684L86.8306 23.8345" stroke="#070707" stroke-width="1.83312" stroke-linecap="round" stroke-linejoin="round"/>
<path d="M114.254 8.64578V24H111.174V14.0132L107.061 24H104.729L100.594 14.0132V24H97.5139V8.64578H101.012L105.895 20.0625L110.778 8.64578H114.254ZM116.507 17.8627C116.507 16.6309 116.749 15.5383 117.233 14.5851C117.731 13.6319 118.399 12.8986 119.235 12.3853C120.085 11.8721 121.031 11.6154 122.072 11.6154C122.981 11.6154 123.773 11.7987 124.448 12.1654C125.137 12.532 125.687 12.9939 126.098 13.5512V11.8134H129.199V24H126.098V22.2182C125.702 22.7901 125.152 23.2668 124.448 23.648C123.759 24.0147 122.959 24.198 122.05 24.198C121.024 24.198 120.085 23.934 119.235 23.4061C118.399 22.8781 117.731 22.1375 117.233 21.1843C116.749 20.2164 116.507 19.1092 116.507 17.8627ZM126.098 17.9067C126.098 17.1588 125.951 16.5209 125.658 15.9929C125.364 15.4503 124.969 15.0397 124.47 14.7611C123.971 14.4678 123.436 14.3211 122.864 14.3211C122.292 14.3211 121.764 14.4604 121.28 14.7391C120.796 15.0177 120.4 15.4283 120.092 15.9709C119.799 16.4989 119.652 17.1295 119.652 17.8627C119.652 18.596 119.799 19.2412 120.092 19.7985C120.4 20.3411 120.796 20.759 121.28 21.0523C121.779 21.3456 122.307 21.4923 122.864 21.4923C123.436 21.4923 123.971 21.353 124.47 21.0743C124.969 20.781 125.364 20.3704 125.658 19.8425C125.951 19.2999 126.098 18.6546 126.098 17.9067ZM131.415 17.8627C131.415 16.6309 131.657 15.5383 132.141 14.5851C132.64 13.6319 133.314 12.8986 134.165 12.3853C135.015 11.8721 135.961 11.6154 137.003 11.6154C137.795 11.6154 138.55 11.7914 139.268 12.1434C139.987 12.4807 140.559 12.9353 140.984 13.5072V7.72189H144.108V24H140.984V22.1962C140.603 22.7975 140.068 23.2814 139.378 23.648C138.689 24.0147 137.89 24.198 136.981 24.198C135.954 24.198 135.015 23.934 134.165 23.4061C133.314 22.8781 132.64 22.1375 132.141 21.1843C131.657 20.2164 131.415 19.1092 131.415 17.8627ZM141.006 17.9067C141.006 17.1588 140.859 16.5209 140.566 15.9929C140.273 15.4503 139.877 15.0397 139.378 14.7611C138.88 14.4678 138.344 14.3211 137.773 14.3211C137.201 14.3211 136.673 14.4604 136.189 14.7391C135.705 15.0177 135.309 15.4283 135.001 15.9709C134.708 16.4989 134.561 17.1295 134.561 17.8627C134.561 18.596 134.708 19.2412 135.001 19.7985C135.309 20.3411 135.705 20.759 136.189 21.0523C136.687 21.3456 137.215 21.4923 137.773 21.4923C138.344 21.4923 138.88 21.353 139.378 21.0743C139.877 20.781 140.273 20.3704 140.566 19.8425C140.859 19.2999 141.006 18.6546 141.006 17.9067ZM158.444 17.6427C158.444 18.0827 158.415 18.4786 158.356 18.8306H149.447C149.521 19.7105 149.829 20.3998 150.371 20.8984C150.914 21.397 151.581 21.6463 152.373 21.6463C153.517 21.6463 154.331 21.155 154.815 20.1724H158.136C157.784 21.3456 157.11 22.3135 156.113 23.0761C155.115 23.824 153.891 24.198 152.439 24.198C151.266 24.198 150.21 23.9413 149.271 23.4281C148.347 22.9001 147.622 22.1595 147.094 21.2063C146.58 20.2531 146.324 19.1532 146.324 17.9067C146.324 16.6455 146.58 15.5383 147.094 14.5851C147.607 13.6319 148.325 12.8986 149.249 12.3853C150.173 11.8721 151.236 11.6154 152.439 11.6154C153.598 11.6154 154.631 11.8647 155.541 12.3633C156.465 12.862 157.176 13.5732 157.674 14.4971C158.188 15.4063 158.444 16.4549 158.444 17.6427ZM155.255 16.7628C155.24 15.9709 154.954 15.3403 154.397 14.8711C153.839 14.3871 153.158 14.1451 152.351 14.1451C151.588 14.1451 150.943 14.3798 150.415 14.8491C149.902 15.3037 149.587 15.9416 149.469 16.7628H155.255Z" fill="#070707"/>
</svg>
