<svg width="24" height="24" viewBox="0 0 24 24" fill="none" xmlns="http://www.w3.org/2000/svg">
  <path d="M20.52 3.48A11.94 11.94 0 0 0 12.04 0C5.42 0 .04 5.38.04 12c0 2.12.56 4.2 1.62 6.03L0 24l6.15-1.61A11.9 11.9 0 0 0 12.04 24h.01c6.62 0 12-5.38 12-12 0-3.2-1.25-6.2-3.53-8.52ZM12.05 21.96h-.01a9.9 9.9 0 0 1-5.04-1.38l-.36-.21-3.65.96.97-3.56-.23-.37A9.94 9.94 0 0 1 2.04 12C2.04 6.49 6.53 2 12.04 2c2.66 0 5.16 1.03 7.03 2.91A9.87 9.87 0 0 1 22.04 12c0 5.51-4.49 9.96-9.99 9.96Z" fill="currentColor"/>
  <path d="M17.52 14.57c-.3-.15-1.77-.87-2.05-.97-.27-.1-.47-.15-.67.15-.2.3-.77.97-.94 1.17-.17.2-.35.22-.65.07-.3-.15-1.25-.46-2.37-1.46-.87-.78-1.46-1.75-1.63-2.05-.17-.3-.02-.46.13-.61.13-.13.3-.35.45-.52.15-.17.2-.3.3-.5.1-.2.05-.37-.02-.52-.08-.15-.67-1.62-.92-2.22-.24-.58-.49-.5-.67-.5h-.57c-.2 0-.52.07-.8.37-.27.3-1.05 1.02-1.05 2.5 0 1.47 1.08 2.9 1.23 3.1.15.2 2.12 3.25 5.13 4.56.72.31 1.28.5 1.72.64.72.23 1.38.2 1.9.12.58-.09 1.77-.72 2.02-1.42.25-.69.25-1.29.17-1.42-.07-.13-.27-.2-.57-.35Z" fill="currentColor"/>
</svg>
